<svg id="Layer_1" xmlns="http://www.w3.org/2000/svg" viewBox="0 0 192 192">
  <defs>
    <linearGradient id="grad1" x1="0%" y1="0%" x2="100%" y2="100%">
      <stop offset="0%" style="stop-color:#00c6ff;stop-opacity:1" />
      <stop offset="100%" style="stop-color:#0072ff;stop-opacity:1" />
    </linearGradient>
    <style>
      .cls-1 { fill: url(#grad1); }
      .cls-2 { fill: #0d1b2a; }
    </style>
  </defs>
  <polygon class="cls-1" points="111.14 60.66 131.34 80.86 60.67 80.86 60.67 60.66 111.14 60.66"/>
  <polygon class="cls-1" points=".09 60.66 .09 131.33 20.28 151.53 20.28 80.86 40.47 80.86 40.47 60.66 .09 60.66"/>
  <polygon class="cls-1" points="171.72 40.47 191.91 60.66 191.91 131.33 171.72 131.33 80.86 131.33 60.67 111.14 171.72 111.14 171.72 40.47"/>
  <polygon class="cls-2" points="60.67 111.14 40.47 90.95 40.47 80.86 60.67 80.86 60.67 111.14"/>
  <polygon class="cls-2" points="40.47 20.28 40.47 60.66 60.67 60.66 60.67 40.47 171.72 40.47 151.53 20.28 40.47 20.28"/>
  <rect class="cls-2" x="40.47" y="60.67" width="20.19" height="20.19"/>
  <polygon class="cls-2" points="131.34 151.53 20.28 151.53 40.47 171.72 151.53 171.72 151.53 101.05 131.34 80.86 131.34 151.53"/>
</svg>